REM DIRINDEX 1\2\6,1\2\7,1\2\8,1\2\9,1\3\10,1\3\11,1\4\12,1\4\13,1\4\14,1\5\15,1\5\16,1\5\17
REM DIRNAME folder01,folder02,folder03,folder04,folder05,folder06,folder07,folder08,folder09,folder10,folder11,folder12,folder13,folder14,folder15,folder16,folder17
TITLE ""
FILE "1900_2_sec17_1637_1655.mp3" MP3
  TRACK 01 AUDIO
    TITLE "0:"
    INDEX 01 00:00:00
  TRACK 02 AUDIO
    TITLE "13:cjc020_5428"
    INDEX 01 00:00:17
  TRACK 03 AUDIO
    TITLE "0:"
    INDEX 01 00:01:60
  TRACK 04 AUDIO
    TITLE "14:cjc020_5429"
    INDEX 01 00:01:66
  TRACK 05 AUDIO
    TITLE "0:"
    INDEX 01 00:03:25
  TRACK 06 AUDIO
    TITLE "13:cjc020_5430"
    INDEX 01 00:04:05
  TRACK 07 AUDIO
    TITLE "0:"
    INDEX 01 00:05:24
  TRACK 08 AUDIO
    TITLE "14:cjc020_5431"
    INDEX 01 00:05:30
  TRACK 09 AUDIO
    TITLE "0:"
    INDEX 01 00:06:33
  TRACK 10 AUDIO
    TITLE "13:cjc020_5432"
    INDEX 01 00:07:13
  TRACK 11 AUDIO
    TITLE "0:"
    INDEX 01 00:08:40
  TRACK 12 AUDIO
    TITLE "14:cjc020_5433"
    INDEX 01 00:08:42
  TRACK 13 AUDIO
    TITLE "0:"
    INDEX 01 00:09:57
  TRACK 14 AUDIO
    TITLE "13:cjc020_5434"
    INDEX 01 00:10:37
  TRACK 15 AUDIO
    TITLE "0:"
    INDEX 01 00:11:40
  TRACK 16 AUDIO
    TITLE "14:cjc020_5435"
    INDEX 01 00:11:44
  TRACK 17 AUDIO
    TITLE "0:"
    INDEX 01 00:13:43
  TRACK 18 AUDIO
    TITLE "13:cjc020_5436"
    INDEX 01 00:14:23
  TRACK 19 AUDIO
    TITLE "0:"
    INDEX 01 00:15:30
  TRACK 20 AUDIO
    TITLE "14:cjc020_5437"
    INDEX 01 00:15:32
  TRACK 21 AUDIO
    TITLE "0:"
    INDEX 01 00:17:45
  TRACK 22 AUDIO
    TITLE "13:cjc020_5438"
    INDEX 01 00:18:25
  TRACK 23 AUDIO
    TITLE "0:"
    INDEX 01 00:19:32
  TRACK 24 AUDIO
    TITLE "14:cjc020_5439"
    INDEX 01 00:19:34
  TRACK 25 AUDIO
    TITLE "0:"
    INDEX 01 00:21:51
  TRACK 26 AUDIO
    TITLE "13:cjc020_5440"
    INDEX 01 00:22:30
  TRACK 27 AUDIO
    TITLE "0:"
    INDEX 01 00:23:30
  TRACK 28 AUDIO
    TITLE "14:cjc020_5441"
    INDEX 01 00:23:36
  TRACK 29 AUDIO
    TITLE "0:"
    INDEX 01 00:25:33
  TRACK 30 AUDIO
    TITLE "13:cjc020_5442"
    INDEX 01 00:26:15
  TRACK 31 AUDIO
    TITLE "0:"
    INDEX 01 00:27:10
  TRACK 32 AUDIO
    TITLE "14:cjc020_5443"
    INDEX 01 00:27:12
  TRACK 33 AUDIO
    TITLE "0:"
    INDEX 01 00:30:24
  TRACK 34 AUDIO
    TITLE "13:cjc020_5444"
    INDEX 01 00:31:02
  TRACK 35 AUDIO
    TITLE "0:"
    INDEX 01 00:32:05
  TRACK 36 AUDIO
    TITLE "14:cjc020_5445"
    INDEX 01 00:32:09
  TRACK 37 AUDIO
    TITLE "0:"
    INDEX 01 00:34:61
  TRACK 38 AUDIO
    TITLE "13:cjc020_5446"
    INDEX 01 00:35:41
  TRACK 39 AUDIO
    TITLE "0:"
    INDEX 01 00:36:33
  TRACK 40 AUDIO
    TITLE "14:cjc020_5447"
    INDEX 01 00:36:38
  TRACK 41 AUDIO
    TITLE "0:"
    INDEX 01 00:37:52
  TRACK 42 AUDIO
    TITLE "13:cjc020_5448"
    INDEX 01 00:38:28
  TRACK 43 AUDIO
    TITLE "0:"
    INDEX 01 00:39:33
  TRACK 44 AUDIO
    TITLE "14:cjc020_5449"
    INDEX 01 00:39:39
  TRACK 45 AUDIO
    TITLE "0:"
    INDEX 01 00:42:33
  TRACK 46 AUDIO
    TITLE "13:cjc020_5450"
    INDEX 01 00:43:15
  TRACK 47 AUDIO
    TITLE "0:"
    INDEX 01 00:44:24
  TRACK 48 AUDIO
    TITLE "14:cjc020_5451"
    INDEX 01 00:44:26
  TRACK 49 AUDIO
    TITLE "0:"
    INDEX 01 00:47:70
  TRACK 50 AUDIO
    TITLE "13:cjc020_5452"
    INDEX 01 00:48:48
  TRACK 51 AUDIO
    TITLE "0:"
    INDEX 01 00:49:45
  TRACK 52 AUDIO
    TITLE "14:cjc020_5453"
    INDEX 01 00:49:47
  TRACK 53 AUDIO
    TITLE "0:"
    INDEX 01 00:51:46
  TRACK 54 AUDIO
    TITLE "13:cjc020_5454"
    INDEX 01 00:52:24
  TRACK 55 AUDIO
    TITLE "0:"
    INDEX 01 00:53:25
  TRACK 56 AUDIO
    TITLE "14:cjc020_5455"
    INDEX 01 00:53:29
  TRACK 57 AUDIO
    TITLE "0:"
    INDEX 01 00:54:52
  TRACK 58 AUDIO
    TITLE "13:cjc020_5456"
    INDEX 01 00:55:30
  TRACK 59 AUDIO
    TITLE "0:"
    INDEX 01 00:56:29
  TRACK 60 AUDIO
    TITLE "14:cjc020_5457"
    INDEX 01 00:56:31
  TRACK 61 AUDIO
    TITLE "0:"
    INDEX 01 00:57:39
  TRACK 62 AUDIO
    TITLE "13:cjc020_5458"
    INDEX 01 00:58:18
  TRACK 63 AUDIO
    TITLE "0:"
    INDEX 01 00:59:28
  TRACK 64 AUDIO
    TITLE "14:cjc020_5459"
    INDEX 01 00:59:30
  TRACK 65 AUDIO
    TITLE "0:"
    INDEX 01 01:04:01
  TRACK 66 AUDIO
    TITLE "13:cjc020_5460"
    INDEX 01 01:04:54
  TRACK 67 AUDIO
    TITLE "0:"
    INDEX 01 01:05:66
  TRACK 68 AUDIO
    TITLE "14:cjc020_5461"
    INDEX 01 01:05:69
  TRACK 69 AUDIO
    TITLE "0:"
    INDEX 01 01:07:04
  TRACK 70 AUDIO
    TITLE "13:cjc020_5462"
    INDEX 01 01:07:57
  TRACK 71 AUDIO
    TITLE "0:"
    INDEX 01 01:08:70
  TRACK 72 AUDIO
    TITLE "14:cjc020_5463"
    INDEX 01 01:08:72
  TRACK 73 AUDIO
    TITLE "0:"
    INDEX 01 01:11:31
  TRACK 74 AUDIO
    TITLE "13:cjc020_5464"
    INDEX 01 01:12:09
  TRACK 75 AUDIO
    TITLE "0:"
    INDEX 01 01:13:06
  TRACK 76 AUDIO
    TITLE "14:cjc020_5465"
    INDEX 01 01:13:10
  TRACK 77 AUDIO
    TITLE "0:"
    INDEX 01 01:14:27
